<?xml version="1.0" encoding="iso-8859-1"?>
<!-- Uploaded to: SVG Repo, www.svgrepo.com, Generator: SVG Repo Mixer Tools -->
<!DOCTYPE svg PUBLIC "-//W3C//DTD SVG 1.1//EN" "http://www.w3.org/Graphics/SVG/1.1/DTD/svg11.dtd">
<svg fill="#CEAB93" version="1.1" id="Capa_1" xmlns="http://www.w3.org/2000/svg" xmlns:xlink="http://www.w3.org/1999/xlink" 
	 width="800px" height="800px" viewBox="0 0 483.48 483.48"
	 xml:space="preserve">
<g>
	<g>
		<path d="M361.08,0H122.4C54.799,0,0,54.798,0,122.4v238.68c0,67.602,54.799,122.4,122.4,122.4h238.68
			c67.602,0,122.4-54.799,122.4-122.4V122.4C483.48,54.798,428.682,0,361.08,0z"/>
	</g>
	<circle cx="1147.593" cy="-448.629" fill="#CEAB93" 
                                                r="322.668"/><g>
                                                <path d="M1313.478-449.938c0,0-67.68,116.823-168.123,116.823c-100.442,0-168.122-116.823-168.122-116.823 
                                                  s67.68-117.254,168.122-117.254C1245.798-567.191,1313.478-449.938,1313.478-449.938z M1227.692-449.938 
                                                    c0-45.264-37.073-82.337-82.338-82.337s-82.337,37.073-82.337,82.337s37.072,82.336,82.337,82.336 
                                                      S1227.692-404.674,1227.692-449.938z M1145.354-487.011c-20.261,0-36.642,17.243-36.642,37.073
                                                         c0,20.261,16.381,36.642,36.642,36.642c19.83,0,37.073-16.381,37.073-36.642C1182.428-469.768,1165.185-487.011,1145.354-487.011z" 
                                                         fill="#F4B300"/></g><circle cx="2712.807" cy="-444.84" fill="#111111" r="322.668"/><g>
                                                         <path d="M2857.718-617.065c25.523,0,37.176,11.652,37.176,37.732v172.01c0,24.413-11.652,36.065-37.176,36.065   
                                                         h-121.517l-134.279,108.2l27.744-108.2h-41.615c-25.523,0-37.731-11.652-37.731-37.176v-170.899   
                                                         c0-26.08,12.208-38.286,37.731-37.732H2857.718z M2621.343-510.53h202.528v-36.62h-202.528V-510.53z M2823.871-477.792h-202.528   
                                                         v36.622h202.528V-477.792z" fill="#F4B300"/></g><circle cx="1917.735" cy="-452.77" fill="#111111" r="322.668"/>
                                                         <g><path d="M1970.881-368.441c-29.263,0-57.963-10.129-81.599-29.826l-23.072,56.274l-58.524,58.525   
                                                         c-6.189,4.502-12.943,6.753-20.26,6.753c-18.57,0-33.764-16.321-33.764-34.327c0-7.315,2.25-14.632,6.752-20.259l57.963-58.525   l56.838-23.073c-19.697-23.634-29.826-52.897-29.826-82.16c0-68.093,57.4-124.365,125.492-124.365   c67.529,0,124.93,57.399,124.93,124.928c0,32.64-11.82,64.716-36.018,88.913C2035.033-380.821,2002.957-368.441,1970.881-368.441z    
                                                         M1970.881-416.838c41.643,0,76.533-34.89,76.533-77.659c0-41.643-35.454-76.532-76.533-76.532  
                                                          c-42.206,0-77.096,35.453-77.096,76.532c0,20.26,7.315,39.955,22.509,55.149C1931.488-424.717,1951.185-416.838,1970.881-416.838z" fill="#F4B300"/></g><circle cx="-1237.336" cy="-452.699" fill="#111111" r="322.668"/>
                                                          <g><path d="M-1324.092-275.512h-85.765v-256.104h85.765V-275.512z M-1204.975-275.512h-85.765V-466.1h85.765V-275.512z    
														  M-1085.857-275.512h-85.765v-354.375h85.765V-275.512z" fill="#F4B300"/></g>
														  <g><path d="M403.227,390.782c-42.528,60.957-48.671,112.464-48.671,112.464c-0.945,4.252-4.725,4.252-5.67,0   
														  c0,0-8.033-51.507-49.616-112.464c-34.495-48.198-50.088-67.1-50.088-106.32c0-56.231,44.891-101.122,101.595-101.122   
														  c56.232,0,102.541,44.891,102.541,101.122C453.315,323.683,423.073,361.958,403.227,390.782z M390.94,286.353   
														  c0-21.736-17.011-38.748-39.22-38.748c-20.792,0-38.275,17.012-38.275,38.748s17.484,40.165,38.275,40.165   
														  C373.929,326.518,390.94,308.089,390.94,286.353z" fill="#F4B300"/></g>
														  <circle cx="3463.953" cy="-444.98" fill="#111111" r="322.668"/><g><path 
														  d="M3621.356-347.218c30.177,94.173-173.775,43.185-189.904,28.096v23.935c0,6.763-5.724,12.485-11.967,12.485  
														   h-85.327c-6.243,0-11.967-5.723-11.967-12.485v-200.312c0-6.243,5.724-11.966,11.967-11.966h85.327   
														   c6.243,0,11.967,5.723,11.967,11.966v13.527c40.582-26.534,61.394-93.132,61.915-95.732c6.242-27.055,21.852-42.663,44.223-42.663   
														   c23.413,0,50.988,22.892,50.988,71.278c0,11.968-4.683,30.697-11.966,44.745h7.283c30.697,0,65.557,14.568,54.11,58.792   
														   c11.968,20.292,4.162,42.663-5.203,50.988C3642.168-375.832,3634.364-356.582,3621.356-347.218z M3587.019-401.847   
														   c29.655,0,30.697-31.218,3.641-32.258c-5.722-0.521-5.722-6.244,0-6.244c27.057,0,22.373-34.339-6.764-34.339h-30.696   
														   c-10.927,0-16.129-6.764-16.129-13.527c0-12.487,21.853-39.542,21.853-60.353c0-26.536-13.007-42.144-21.333-42.144   
														   c-8.844,0-13.527,7.283-14.567,16.128c-6.243,41.624-52.028,110.821-91.57,127.991v94.172   
														   c55.671,27.575,104.578,29.656,127.991,30.696c35.379,1.042,53.068-27.054,16.649-34.858c-7.805-1.04-7.284-7.805-1.563-7.805   c36.94,0,39.542-27.575,12.488-30.696C3580.255-396.124,3580.255-401.847,3587.019-401.847z" 
														   fill="#F4B300"/></g><circle cx="-2048.118" cy="-444.91" fill="#111111" r="322.668"/><g>
														   <path d="M-2176.138-426.059c-30.08-29.512-43.133-61.861-43.133-90.805c0-49.375,32.917-82.293,82.86-82.293   
														   c46.538,0,62.429,21.566,89.67,52.781c27.242-31.215,43.133-52.781,89.67-52.781c49.943,0,82.861,32.918,82.861,82.293   
														   c0,28.943-13.054,61.293-43.134,90.805l-129.397,128.83L-2176.138-426.059z" fill="#F4B300"/></g>
														   <circle cx="4266.024" cy="-445.051" fill="#111111" r="322.668"/><g>
														   <path d="M4098.238-549.235l103.448,97.45l-103.448,105.947V-549.235z M4433.07-327.348h-315.342l103.448-105.447   
														   l53.974,50.975l54.972-51.975L4433.07-327.348z M4427.073-575.723L4275.15-431.295l-151.924-144.428H4427.073z 
														   M4452.561-549.235   v203.397l-102.948-106.447L4452.561-549.235z" fill="#F4B300"/></g>
</g>
</svg>